Coordinates
version=1
nRows=65
nColumns=12
inDegrees=yes

Units are S.I. units (second, meters, Newtons, ...)
Angles are in degrees

endheader
time	SC_y	SC_z	SC_x	AC_y	AC_z	AC_x	GH_y	GH_z	GH_yy	EL_x	PS_y
       0.0              -24.33           16.4          69.47          56.19          -1.87         -3.959         -53.61          13.92         -149.2          74.25          143.4
 0.0009315              -24.33           16.4          69.47          56.19         -1.873         -3.956          -53.6          13.93         -149.2          74.24          143.4
  0.001863              -24.33           16.4          69.47          56.19         -1.875         -3.952         -53.58          13.93         -149.2          74.23          143.4
  0.002795              -24.34           16.4          69.47          56.19         -1.878         -3.949         -53.57          13.94         -149.2          74.23          143.4
  0.003726              -24.34           16.4          69.47          56.19         -1.881         -3.945         -53.56          13.94         -149.2          74.22          143.3
  0.004658              -24.34          16.41          69.47          56.19         -1.884         -3.941         -53.54          13.95         -149.2           74.2          143.3
  0.005589              -24.34          16.41          69.48          56.19         -1.888         -3.936         -53.53          13.95         -149.2          74.19          143.3
  0.006521              -24.35          16.41          69.48          56.19         -1.892         -3.932         -53.51          13.96         -149.2          74.18          143.3
  0.007452              -24.35          16.41          69.48          56.18         -1.896         -3.927         -53.49          13.97         -149.2          74.17          143.3
  0.008384              -24.35          16.41          69.48          56.18           -1.9         -3.921         -53.47          13.97         -149.2          74.15          143.2
  0.009315              -24.36          16.41          69.48          56.18         -1.905         -3.916         -53.45          13.98         -149.2          74.14          143.2
   0.01025              -24.36          16.41          69.48          56.18         -1.909         -3.909         -53.42          13.99         -149.2          74.12          143.2
   0.01118              -24.36          16.41          69.49          56.18         -1.915         -3.903          -53.4           14.0         -149.2           74.1          143.1
   0.01211              -24.37          16.41          69.49          56.18         -1.921         -3.896         -53.37          14.01         -149.2          74.08          143.1
   0.01304              -24.37          16.41          69.49          56.18         -1.927         -3.888         -53.34          14.02         -149.2          74.06          143.1
   0.01397              -24.38          16.41          69.49          56.18         -1.934         -3.879         -53.31          14.03         -149.2          74.04          143.0
    0.0149              -24.38          16.41          69.49          56.17         -1.941          -3.87         -53.28          14.04         -149.2          74.02          143.0
   0.01584              -24.39          16.42           69.5          56.17         -1.949          -3.86         -53.24          14.05         -149.2          73.99          142.9
   0.01677               -24.4          16.42           69.5          56.17         -1.958         -3.849          -53.2          14.07         -149.1          73.96          142.9
    0.0177               -24.4          16.42           69.5          56.17         -1.967         -3.837         -53.15          14.08         -149.1          73.93          142.8
   0.01863              -24.41          16.42          69.51          56.17         -1.978         -3.824          -53.1           14.1         -149.1           73.9          142.8
   0.01956              -24.42          16.42          69.51          56.16         -1.989          -3.81         -53.05          14.12         -149.1          73.86          142.7
   0.02049              -24.43          16.42          69.52          56.16         -2.002         -3.794         -52.99          14.14         -149.1          73.82          142.6
   0.02142              -24.44          16.43          69.52          56.16         -2.016         -3.776         -52.92          14.16         -149.1          73.77          142.6
   0.02236              -24.45          16.43          69.53          56.15         -2.032         -3.756         -52.85          14.19         -149.1          73.72          142.5
   0.02329              -24.46          16.43          69.53          56.15          -2.05         -3.734         -52.76          14.21         -149.1          73.66          142.4
   0.02422              -24.48          16.43          69.54          56.15         -2.069          -3.71         -52.67          14.25         -149.1          73.59          142.2
   0.02515              -24.49          16.44          69.55          56.14         -2.091         -3.682         -52.57          14.28         -149.1          73.52          142.1
   0.02608              -24.51          16.44          69.56          56.14         -2.116         -3.651         -52.45          14.32         -149.0          73.44          142.0
   0.02701              -24.53          16.45          69.57          56.13         -2.145         -3.615         -52.31          14.37         -149.0          73.34          141.8
   0.02795              -24.56          16.45          69.58          56.12         -2.177         -3.575         -52.16          14.42         -149.0          73.24          141.6
   0.02888              -24.58          16.46          69.59          56.11         -2.214         -3.529         -51.99          14.48         -149.0          73.11          141.4
   0.02981              -24.61          16.46          69.61           56.1         -2.257         -3.475         -51.78          14.55         -148.9          72.97          141.2
   0.03074              -24.65          16.47          69.62          56.09         -2.307         -3.413         -51.55          14.63         -148.9          72.81          140.9
   0.03167              -24.69          16.48          69.64          56.08         -2.366          -3.34         -51.27          14.72         -148.9          72.62          140.5
    0.0326              -24.74          16.49          69.67          56.07         -2.434         -3.254         -50.95          14.83         -148.8          72.39          140.1
   0.03353               -24.8          16.51           69.7          56.05         -2.516         -3.151         -50.56          14.97         -148.7          72.12          139.7
   0.03447              -24.88          16.52          69.73          56.03         -2.614         -3.029          -50.1          15.12         -148.7          71.79          139.1
    0.0354              -24.96          16.54          69.77           56.0         -2.733         -2.881         -49.54          15.32         -148.6           71.4          138.4
   0.03633              -25.07          16.56          69.83          55.97         -2.878           -2.7         -48.86          15.55         -148.5          70.92          137.6
   0.03726               -25.2          16.59          69.89          55.93         -3.056         -2.476         -48.02          15.84         -148.4          70.33          136.5
   0.03819              -25.37          16.63          69.97          55.88         -3.279         -2.198         -46.97           16.2         -148.2           69.6          135.2
   0.03912              -25.57          16.67          70.07          55.82          -3.56         -1.847         -45.64          16.65         -148.0          68.67          133.6
   0.04005              -25.83          16.73          70.19          55.74         -3.917           -1.4         -43.96          17.23         -147.7          67.49          131.5
   0.04099              -26.17           16.8          70.35          55.64         -4.374        -0.8293         -41.81          17.96         -147.4          65.98          128.9
   0.04192               -26.6          16.89          70.56          55.51         -4.961        -0.0964         -39.04          18.91         -147.0          64.05          125.5
   0.04285              -27.15          17.01          70.82          55.34          -5.71         0.8398         -35.51          20.12         -146.4          61.57          121.1
   0.04378              -27.84          17.16          71.16          55.13         -6.652          2.017         -31.07          21.63         -145.8          58.46          115.7
   0.04471              -28.68          17.35          71.56          54.88           -7.8          3.451         -25.66          23.48         -144.9          54.67          109.0
   0.04564              -29.66          17.56          72.03          54.59         -9.131          5.114         -19.39          25.63         -144.0          50.28          101.3
   0.04658              -30.72          17.79          72.54          54.27         -10.57          6.914          -12.6          27.95         -142.9          45.52          92.92
   0.04751              -31.77          18.02          73.05          53.95         -12.01          8.715         -5.806          30.27         -141.9          40.76          84.56
   0.04844              -32.75          18.23          73.52          53.66         -13.34          10.38         0.4652          32.42         -140.9          36.37          76.84
   0.04937              -33.59          18.41          73.92           53.4         -14.49          11.81          5.876          34.27         -140.1          32.58          70.18
    0.0503              -34.28          18.56          74.26          53.19         -15.43          12.99          10.32          35.79         -139.4          29.47          64.72
   0.05123              -34.83          18.68          74.52          53.03         -16.18          13.93          13.85           37.0         -138.9           27.0          60.37
   0.05216              -35.26          18.77          74.73           52.9         -16.77          14.66          16.61          37.94         -138.5          25.06          56.97
    0.0531               -35.6          18.84          74.89           52.8         -17.23          15.23          18.77          38.68         -138.1          23.55          54.32
   0.05403              -35.86           18.9          75.01          52.72         -17.58          15.68          20.45          39.25         -137.9          22.37          52.25
   0.05496              -36.07          18.95          75.11          52.66         -17.86          16.03          21.77          39.71         -137.7          21.44          50.62
   0.05589              -36.23          18.98          75.19          52.61         -18.09          16.31          22.82          40.07         -137.5          20.71          49.32
   0.05682              -36.36          19.01          75.25          52.57         -18.27          16.53          23.67          40.35         -137.4          20.12          48.28
   0.05775              -36.47          19.03          75.31          52.54         -18.41          16.71          24.35          40.59         -137.3          19.64          47.44
   0.05869              -36.56          19.05          75.35          52.51         -18.53          16.86          24.91          40.78         -137.2          19.25          46.76
   0.05962              -36.63          19.07          75.38          52.49         -18.63          16.98          25.37          40.94         -137.1          18.92          46.19
